<?xml version="1.0" standalone="no"?><!DOCTYPE svg PUBLIC "-//W3C//DTD SVG 1.1//EN" "http://www.w3.org/Graphics/SVG/1.1/DTD/svg11.dtd"><svg class="icon" width="200px" height="200.00px" viewBox="0 0 1024 1024" version="1.1" xmlns="http://www.w3.org/2000/svg"><path fill="#333333" d="M842.1 808.3h-61.5c-11 0-20-9-20-20s9-20 20-20h61.5c40.5 0 73.5-33 73.5-73.5V199.2c-13.1-13.4-49.2-50.4-117.2-122.8H397.7c-40.5 0-73.5 33-73.5 73.5 0 11-9 20-20 20s-20-9-20-20c0-62.6 50.9-113.5 113.5-113.5h409.4c5.5 0 10.8 2.3 14.6 6.3 92.1 98.1 127.7 133.8 128.1 134.1 3.7 3.8 5.9 8.8 5.9 14.1v503.8c-0.1 62.7-51.1 113.6-113.6 113.6z"  /><path fill="#333333" d="M653.4 985.9H151.6C98.9 985.9 56 943 56 890.3V280.4C55.9 214 110 160 176.4 160h407.1c5.4 0 10.6 2.2 14.4 6.1L768.3 343c3.6 3.7 5.6 8.7 5.6 13.9v508.5c-0.1 66.4-54.1 120.5-120.5 120.5zM176.4 200c-44.3 0-80.4 36.1-80.4 80.4v609.8c0 30.7 24.9 55.6 55.6 55.6h501.8c44.3 0 80.4-36.1 80.4-80.4V365L574.9 200H176.4z"  /><path fill="#333333" d="M602.4 523.3H219.6c-11 0-20-9-20-20s9-20 20-20h382.8c11 0 20 9 20 20s-9 20-20 20zM602.4 657H219.6c-11 0-20-9-20-20s9-20 20-20h382.8c11 0 20 9 20 20s-9 20-20 20zM602.4 790.6H219.6c-11 0-20-9-20-20s9-20 20-20h382.8c11 0 20 9 20 20s-9 20-20 20zM753.8 381H583.4c-11 0-20-9-20-20V180c0-11 9-20 20-20s20 9 20 20v161h150.4c11 0 20 9 20 20s-8.9 20-20 20z"  /><path fill="#333333" d="M926.1 233.3H790.7c-11 0-20-9-20-20v-146c0-11 9-20 20-20s20 9 20 20v126h115.4c11 0 20 9 20 20s-8.9 20-20 20z"  /></svg>